<svg width="132" height="123" viewBox="0 0 132 123" fill="none" xmlns="http://www.w3.org/2000/svg">
<path d="M62.6871 11.0062C63.5661 10.1284 64.7575 9.63535 65.9996 9.63535C67.2418 9.63535 68.4332 10.1284 69.3121 11.0062L123.625 65.3187C124.057 65.7662 124.575 66.1231 125.147 66.3685C125.719 66.6139 126.334 66.7429 126.956 66.748C127.579 66.7531 128.196 66.6342 128.772 66.3983C129.348 66.1623 129.871 65.814 130.311 65.3737C130.751 64.9333 131.099 64.4098 131.334 63.8336C131.569 63.2574 131.688 62.6401 131.682 62.0177C131.676 61.3953 131.547 60.7803 131.301 60.2085C131.055 59.6368 130.698 59.1197 130.25 58.6875L75.9434 4.37498C74.6376 3.06913 73.0873 2.03328 71.3812 1.32656C69.675 0.619847 67.8464 0.256104 65.9996 0.256104C64.1529 0.256104 62.3243 0.619847 60.6181 1.32656C58.912 2.03328 57.3617 3.06913 56.0559 4.37498L1.74339 58.6875C1.2959 59.1201 0.939041 59.6375 0.693647 60.2095C0.448254 60.7815 0.319236 61.3967 0.314123 62.0191C0.30901 62.6415 0.427904 63.2587 0.663867 63.8346C0.89983 64.4106 1.24814 64.9338 1.68847 65.3737C2.12879 65.8136 2.65232 66.1614 3.22851 66.3969C3.80469 66.6323 4.42199 66.7506 5.04439 66.7449C5.66679 66.7392 6.28182 66.6096 6.8536 66.3637C7.42537 66.1177 7.94245 65.7604 8.37464 65.3125L62.6871 11.0062Z" fill="#3678DD"/>
<path d="M66 20.9501L116.994 71.9438C117.181 72.1313 117.369 72.3063 117.562 72.4813V111.219C117.562 117.688 112.312 122.938 105.844 122.938H84.75C83.5068 122.938 82.3145 122.444 81.4354 121.565C80.5564 120.686 80.0625 119.493 80.0625 118.25V90.1251C80.0625 88.8819 79.5686 87.6896 78.6896 86.8105C77.8105 85.9314 76.6182 85.4376 75.375 85.4376H56.625C55.3818 85.4376 54.1895 85.9314 53.3104 86.8105C52.4314 87.6896 51.9375 88.8819 51.9375 90.1251V118.25C51.9375 119.493 51.4436 120.686 50.5646 121.565C49.6855 122.444 48.4932 122.938 47.25 122.938H26.1562C23.0482 122.938 20.0675 121.703 17.8698 119.505C15.6722 117.308 14.4375 114.327 14.4375 111.219V72.4813C14.6319 72.3074 14.8216 72.1281 15.0063 71.9438L66 20.9501Z" fill="#3678DD"/>
</svg>
