<svg width="25" height="25" viewBox="0 0 25 25" fill="none" xmlns="http://www.w3.org/2000/svg">
<mask id="mask0_1856_1385" style="mask-type:alpha" maskUnits="userSpaceOnUse" x="0" y="0" width="25" height="25">
<rect x="0.0668945" y="0.102539" width="24" height="24" fill="#D9D9D9"/>
</mask>
<g mask="url(#mask0_1856_1385)">
<path d="M7.06689 21.1025C6.51689 21.1025 6.04606 20.9067 5.65439 20.515C5.26273 20.1234 5.06689 19.6525 5.06689 19.1025V6.10254H4.06689V4.10254H9.06689V3.10254H15.0669V4.10254H20.0669V6.10254H19.0669V19.1025C19.0669 19.6525 18.8711 20.1234 18.4794 20.515C18.0877 20.9067 17.6169 21.1025 17.0669 21.1025H7.06689ZM9.06689 17.1025H11.0669V8.10254H9.06689V17.1025ZM13.0669 17.1025H15.0669V8.10254H13.0669V17.1025Z" fill="#4D869C"/>
</g>
</svg>
