<svg width="25" height="25" viewBox="0 0 25 25" fill="none" xmlns="http://www.w3.org/2000/svg">
<mask id="mask0_1857_1397" style="mask-type:alpha" maskUnits="userSpaceOnUse" x="0" y="0" width="25" height="25">
<rect x="0.0668945" y="0.102539" width="24" height="24" fill="#D9D9D9"/>
</mask>
<g mask="url(#mask0_1857_1397)">
<path d="M12.7419 12.1025L9.66689 15.1775L11.0669 16.6025L15.5669 12.1025L11.0669 7.60254L9.66689 9.02754L12.7419 12.1025ZM12.0669 22.1025C10.6836 22.1025 9.38356 21.84 8.16689 21.315C6.95023 20.79 5.89189 20.0775 4.99189 19.1775C4.09189 18.2775 3.37939 17.2192 2.85439 16.0025C2.32939 14.7859 2.06689 13.4859 2.06689 12.1025C2.06689 10.7192 2.32939 9.41921 2.85439 8.20254C3.37939 6.98587 4.09189 5.92754 4.99189 5.02754C5.89189 4.12754 6.95023 3.41504 8.16689 2.89004C9.38356 2.36504 10.6836 2.10254 12.0669 2.10254C13.4502 2.10254 14.7502 2.36504 15.9669 2.89004C17.1836 3.41504 18.2419 4.12754 19.1419 5.02754C20.0419 5.92754 20.7544 6.98587 21.2794 8.20254C21.8044 9.41921 22.0669 10.7192 22.0669 12.1025C22.0669 13.4859 21.8044 14.7859 21.2794 16.0025C20.7544 17.2192 20.0419 18.2775 19.1419 19.1775C18.2419 20.0775 17.1836 20.79 15.9669 21.315C14.7502 21.84 13.4502 22.1025 12.0669 22.1025Z" fill="#4D869C"/>
</g>
</svg>
