<svg width="25" height="25" viewBox="0 0 25 25" fill="none" xmlns="http://www.w3.org/2000/svg">
<mask id="mask0_1856_1373" style="mask-type:alpha" maskUnits="userSpaceOnUse" x="0" y="0" width="25" height="25">
<rect x="0.0668945" y="0.102539" width="24" height="24" fill="#D9D9D9"/>
</mask>
<g mask="url(#mask0_1856_1373)">
<path d="M5.06689 19.1025H6.49189L16.2669 9.32754L14.8419 7.90254L5.06689 17.6775V19.1025ZM3.06689 21.1025V16.8525L16.2669 3.67754C16.4669 3.49421 16.6877 3.35254 16.9294 3.25254C17.1711 3.15254 17.4252 3.10254 17.6919 3.10254C17.9586 3.10254 18.2169 3.15254 18.4669 3.25254C18.7169 3.35254 18.9336 3.50254 19.1169 3.70254L20.4919 5.10254C20.6919 5.28587 20.8377 5.50254 20.9294 5.75254C21.0211 6.00254 21.0669 6.25254 21.0669 6.50254C21.0669 6.76921 21.0211 7.02337 20.9294 7.26504C20.8377 7.50671 20.6919 7.72754 20.4919 7.92754L7.31689 21.1025H3.06689ZM15.5419 8.62754L14.8419 7.90254L16.2669 9.32754L15.5419 8.62754Z" fill="#4D869C"/>
</g>
</svg>
