<svg width="25" height="25" viewBox="0 0 25 25" fill="none" xmlns="http://www.w3.org/2000/svg">
<mask id="mask0_1848_1367" style="mask-type:alpha" maskUnits="userSpaceOnUse" x="0" y="0" width="25" height="25">
<rect x="0.689011" y="0.297119" width="24" height="24" fill="#D9D9D9"/>
</mask>
<g mask="url(#mask0_1848_1367)">
<path d="M12.689 12.2971C11.589 12.2971 10.6473 11.9055 9.86401 11.1221C9.08068 10.3388 8.68901 9.39712 8.68901 8.29712C8.68901 7.19712 9.08068 6.25545 9.86401 5.47212C10.6473 4.68879 11.589 4.29712 12.689 4.29712C13.789 4.29712 14.7307 4.68879 15.514 5.47212C16.2973 6.25545 16.689 7.19712 16.689 8.29712C16.689 9.39712 16.2973 10.3388 15.514 11.1221C14.7307 11.9055 13.789 12.2971 12.689 12.2971ZM4.68901 20.2971V17.4971C4.68901 16.9305 4.83484 16.4096 5.12651 15.9346C5.41818 15.4596 5.80568 15.0971 6.28901 14.8471C7.32234 14.3305 8.37234 13.943 9.43901 13.6846C10.5057 13.4263 11.589 13.2971 12.689 13.2971C13.789 13.2971 14.8723 13.4263 15.939 13.6846C17.0057 13.943 18.0557 14.3305 19.089 14.8471C19.5723 15.0971 19.9598 15.4596 20.2515 15.9346C20.5432 16.4096 20.689 16.9305 20.689 17.4971V20.2971H4.68901Z" fill="#7AB2B2"/>
</g>
</svg>
